<?xml version="1.0" encoding="UTF-8"?>
<svg id="Capa_1" xmlns="http://www.w3.org/2000/svg" version="1.1" viewBox="0 0 800 800">
  <!-- Generator: Adobe Illustrator 29.1.0, SVG Export Plug-In . SVG Version: 2.1.0 Build 142)  -->
  <defs>
    <style>
      .st0 {
        fill: #030104;
      }
    </style>
  </defs>
  <path class="st0" d="M650,0H150C67.1,0,0,67.1,0,150v500c0,82.9,67.1,150,150,150h500c82.9,0,150-67.1,150-150V150C800,67.1,732.9,0,650,0ZM577.8,535.2l-42.7,42.7c-7.8,7.8-20.6,7.8-28.4,0l-106.7-106.7-106.7,106.7c-7.8,7.8-20.6,7.8-28.5,0l-42.7-42.6c-7.8-7.9-7.8-20.6,0-28.5l106.7-106.7-106.7-106.7c-7.8-7.9-7.8-20.7,0-28.5l42.7-42.7c7.8-7.9,20.6-7.9,28.5,0l106.6,106.7,106.7-106.7c7.8-7.9,20.6-7.9,28.4,0l42.7,42.6c7.8,7.8,7.8,20.6,0,28.5l-106.7,106.7,106.7,106.7c7.8,7.9,7.8,20.6,0,28.5Z"/>
</svg>